<?xml version="1.0" standalone="no"?>
<!DOCTYPE svg PUBLIC "-//W3C//DTD SVG 20010904//EN"
 "http://www.w3.org/TR/2001/REC-SVG-20010904/DTD/svg10.dtd">
<svg version="1.0" xmlns="http://www.w3.org/2000/svg"
 width="478.000000pt" height="478.000000pt" viewBox="0 0 478.000000 478.000000"
 preserveAspectRatio="xMidYMid meet">
<metadata>
Created by potrace 1.14, written by Peter Selinger 2001-2017
</metadata>
<g transform="translate(0.000000,478.000000) scale(0.100000,-0.100000)"
fill="#000000" stroke="none">
<path d="M1585 4740 c-35 -8 -101 -42 -130 -67 -31 -27 -80 -103 -96 -148 -15
-42 -20 -318 -7 -385 23 -119 61 -283 76 -329 18 -53 18 -55 0 -73 -19 -19
-24 -38 -9 -38 9 0 24 -56 26 -98 0 -13 12 -32 25 -42 21 -16 23 -22 14 -37
-6 -10 -15 -33 -18 -50 -6 -26 -19 -39 -69 -67 -169 -94 -268 -258 -270 -444
-1 -78 10 -251 18 -274 2 -7 6 -35 9 -63 8 -68 50 -226 81 -305 23 -56 27 -83
30 -195 4 -130 4 -130 -23 -158 -26 -27 -27 -34 -30 -150 -3 -104 -6 -125 -23
-140 -26 -24 -47 -68 -44 -92 1 -11 6 -41 10 -67 6 -38 4 -48 -7 -48 -7 0 -41
-26 -76 -58 -59 -55 -62 -60 -63 -107 -3 -96 2 -150 14 -157 12 -7 50 -37 95
-75 15 -13 34 -23 42 -23 17 0 18 -58 2 -101 -17 -44 3 -159 28 -159 14 0 22
-33 25 -100 7 -136 17 -276 21 -305 15 -90 121 -171 319 -243 99 -36 344 -84
490 -97 39 -3 90 -8 115 -11 104 -10 465 -3 575 11 22 3 65 8 95 11 81 8 282
52 374 81 204 64 326 155 340 254 3 19 8 82 11 142 12 220 14 239 30 251 24
18 43 78 41 126 -2 40 1 48 36 80 31 29 40 45 47 89 12 79 0 117 -53 165 -48
43 -54 61 -36 113 7 19 8 50 2 86 -6 38 -5 65 3 84 6 15 10 38 9 51 -1 12 -2
30 -3 40 0 10 -14 32 -31 48 -29 30 -29 33 -31 145 -1 106 -3 116 -27 148 -23
31 -25 42 -23 115 5 158 4 343 -4 501 -7 169 -9 183 -23 255 -9 48 -5 109 8
125 18 23 59 158 71 234 10 64 17 84 34 95 46 30 56 47 49 80 -3 17 -13 38
-21 47 -12 15 -12 24 1 75 8 33 18 92 21 133 3 40 8 78 11 83 10 16 43 138 51
191 15 100 9 228 -13 277 -77 168 -320 208 -465 77 -52 -47 -87 -116 -142
-280 -32 -92 -59 -182 -61 -200 -2 -17 -4 -36 -5 -41 0 -4 -16 5 -35 21 -81
72 -204 122 -286 117 -49 -3 -148 -35 -181 -57 -18 -13 -23 -13 -43 7 -110
104 -251 140 -383 98 l-63 -20 -9 37 c-12 45 -50 211 -62 271 -5 25 -12 80
-14 124 -12 191 -40 268 -125 343 -59 52 -177 87 -245 73z"/>
</g>
</svg>
