<svg width="55" height="55" viewBox="0 0 55 55" fill="none" xmlns="http://www.w3.org/2000/svg">
  <path d="M54.8923 10.4729C52.8332 11.3795 50.6518 11.9779 48.4183 12.2489C50.7698 10.8355 52.5305 8.61904 53.3752 6.00873C51.1958 7.2806 48.7804 8.20643 46.2092 8.72206C44.5128 6.90804 42.2649 5.7049 39.8146 5.29946C37.3643 4.89402 34.8487 5.30897 32.6584 6.47987C30.4681 7.65078 28.7257 9.51211 27.7018 11.7748C26.6779 14.0376 26.4297 16.5751 26.9958 18.9933C17.6229 18.551 9.32021 14.0479 3.75833 7.24623C2.74724 8.96455 2.21986 10.9244 2.23208 12.9181C2.23208 16.8369 4.22583 20.2812 7.24625 22.3048C5.45613 22.2478 3.70556 21.7638 2.14042 20.8931V21.0306C2.1394 23.6348 3.03937 26.1592 4.68762 28.1755C6.33587 30.1917 8.63091 31.5757 11.1833 32.0925C9.52944 32.5356 7.7972 32.6022 6.11417 32.2873C6.83861 34.5285 8.24465 36.4878 10.1361 37.8915C12.0275 39.2953 14.31 40.0736 16.665 40.1179C12.6764 43.2482 7.75151 44.9471 2.68125 44.9419C1.7875 44.9419 0.896042 44.8891 0 44.7883C5.16933 48.0982 11.1799 49.8552 17.3181 49.8506C38.0646 49.8506 49.3969 32.6723 49.3969 17.8016C49.3969 17.3204 49.3969 16.8391 49.3625 16.3579C51.5762 14.7649 53.4857 12.7871 55 10.5187L54.8923 10.4729Z" fill="white"/>
  </svg>
  